<?xml version="1.0" standalone="no"?>
<!DOCTYPE svg PUBLIC "-//W3C//DTD SVG 20010904//EN"
 "http://www.w3.org/TR/2001/REC-SVG-20010904/DTD/svg10.dtd">
<svg version="1.0" xmlns="http://www.w3.org/2000/svg"
 width="222.000000pt" height="200.000000pt" viewBox="0 0 222.000000 200.000000"
 preserveAspectRatio="xMidYMid meet">

<g transform="translate(0.000000,200.000000) scale(0.100000,-0.100000)"
fill="#000000" stroke="none">
<path d="M0 1000 l0 -1000 1110 0 1110 0 0 1000 0 1000 -1110 0 -1110 0 0
-1000z m563 566 c22 -11 51 -37 65 -59 26 -39 27 -46 32 -226 4 -153 8 -192
23 -219 21 -38 14 -53 -35 -78 -34 -18 -50 -9 -74 39 l-16 29 -26 -25 c-82
-78 -230 -90 -300 -24 -38 35 -53 75 -53 133 0 74 25 121 86 159 44 27 56 30
134 30 47 0 101 -3 119 -7 l32 -7 0 52 c0 66 -16 97 -60 119 -47 24 -100 23
-188 -4 -81 -24 -97 -18 -85 32 8 35 13 39 79 61 77 25 211 22 267 -5z m1382
6 c49 -17 50 -18 53 -59 4 -49 -1 -51 -63 -28 -78 28 -194 14 -215 -25 -32
-59 5 -97 136 -140 150 -50 202 -115 174 -219 -24 -91 -106 -141 -231 -141
-81 0 -168 21 -194 46 -17 17 -21 69 -6 79 6 3 37 -4 70 -15 116 -39 234 -19
254 44 16 48 -15 76 -129 116 -54 20 -112 44 -127 54 -43 29 -70 90 -65 146 6
62 36 102 100 134 63 31 165 35 243 8z m-1104 -13 c4 -7 31 -108 60 -223 28
-116 55 -214 59 -219 3 -4 30 93 59 215 29 123 55 226 59 230 12 11 101 13
113 1 6 -6 34 -113 64 -239 29 -126 56 -222 59 -214 3 8 30 111 60 229 31 118
59 218 63 222 12 12 92 14 102 4 6 -6 -23 -115 -80 -294 -49 -157 -91 -286
-93 -289 -2 -2 -22 -6 -44 -9 -72 -10 -74 -7 -133 238 -36 150 -56 215 -61
203 -4 -11 -28 -106 -53 -212 -26 -106 -49 -200 -52 -207 -6 -17 -64 -30 -98
-21 -21 5 -29 21 -58 114 -87 276 -140 461 -134 474 6 18 96 15 108 -3z m1261
-750 c19 -10 20 -17 15 -73 -7 -78 -39 -164 -80 -218 -33 -42 -62 -66 -71 -57
-3 2 11 49 29 104 19 55 35 114 35 132 0 50 -23 57 -167 50 -72 -3 -123 -2
-123 3 0 15 80 53 140 67 61 14 189 10 222 -8z m-1859 -88 c280 -137 561 -201
884 -201 243 0 482 43 694 125 70 27 95 33 105 24 24 -20 16 -33 -48 -76 -233
-155 -595 -241 -893 -213 -313 29 -546 118 -792 302 -51 38 -95 73 -98 78 -7
12 4 33 13 28 4 -2 64 -32 135 -67z"/>
<path d="M350 1232 c-97 -48 -68 -182 40 -182 91 0 151 50 158 133 l4 54 -47
6 c-77 11 -118 8 -155 -11z"/>
</g>
</svg>
