<svg width="300" height="300" viewBox="0 0 300 300" fill="none" xmlns="http://www.w3.org/2000/svg">
<path d="M240.213 253.604L148.035 279L56.3391 253.604L38 26H260L240.213 253.604Z" fill="white"/>
<path fill-rule="evenodd" clip-rule="evenodd" d="M34.2773 18.75L55.3336 255.009L149.862 281.25L244.643 254.972L265.727 18.75H34.2773ZM150 19H71V242H150V19Z" fill="#1572B6"/>
<path d="M150 261.183L226.594 239.948L244.612 38.0859H150V261.183Z" fill="#33A9DC"/>
<path d="M150 123.689H188.344L190.987 94.0172H150V65.0391H222.656L221.963 72.8109L214.847 152.667H150V123.689V123.689Z" fill="white"/>
<path d="M185.95 151.465L182.462 190.268L150.146 198.987V229.137L209.546 212.674L209.987 207.78L215.021 151.465H185.95V151.465Z" fill="white"/>
<path fill-rule="evenodd" clip-rule="evenodd" d="M34.2773 16.75L55.343 253.009L149.871 279.25L150 279.214V229.074L149.854 229.115V229.01L149.848 229.012L90.4853 212.531L86.4259 167.043H115.517L117.579 190.153L149.848 198.862L149.979 198.825V198.931L150 198.925L150 152.718H85.1532L78.0375 72.8709L77.3438 65.0897H149.854H150L150 19H265.545L265.746 16.75H34.2773ZM150 94.0678L149.854 94.0678L109.013 94.0678L111.656 123.74H149.854V123.684H150L150 94.0678Z" fill="#E44F26"/>
</svg>
